<svg fill="#947f7d" height="512pt" viewBox="0 -61 512 512" width="512pt" xmlns="http://www.w3.org/2000/svg"><path d="m332.4375 205.28125 174.300781 140.445312c.773438-1.960937 1.460938-3.953124 2.066407-5.980468 2.121093-7.070313 3.195312-14.460938 3.195312-21.957032v-230.222656zm0 0"/><path d="m255.664062 219.742188 253.972657-166.496094c-7.8125-30.648438-34.078125-53.246094-65.191407-53.246094h-376.890624c-30.972657 0-57.140626 22.394531-65.082032 52.832031zm0 0"/><path d="m0 87.136719v230.648437c0 8.480469 1.367188 16.792969 4.066406 24.699219.367188 1.070313.753906 2.136719 1.167969 3.1875l174.128906-140.300781zm0 0"/><path d="m305.519531 222.929688-34.390625 22.546874c-4.707031 3.070313-10.09375 4.605469-15.476562 4.605469-5.386719 0-10.769532-1.539062-15.464844-4.613281l-34.527344-22.757812-183.886718 148.164062c.207031.203125.414062.40625.625.605469 12.425781 11.941406 28.460937 18.519531 45.15625 18.519531h376.890624c16.851563 0 32.835938-6.601562 45.285157-18.644531zm0 0"/></svg>