<svg height="512pt" viewBox="0 0 512 512.00099" width="512pt" xmlns="http://www.w3.org/2000/svg" fill="#7a1c57"><path d="m210.664062 139.304688c-17.332031-17.320313-47.367187-15.488282-66.953124 4.082031-.003907.007812-.011719.011719-.019532.019531-9.128906 9.128906-14.753906 20.835938-15.835937 32.960938-1.160157 12.953124 3.132812 25.332031 11.769531 33.960937 5.859375 5.855469 15.351562 5.855469 21.207031-.003906 0 0 .003907-.003907.003907-.003907 5.855468-5.859374 5.851562-15.359374-.007813-21.214843-3.191406-3.1875-3.308594-7.675781-3.09375-10.066407.449219-5.054687 3.066406-10.3125 7.171875-14.417968 0-.003906.003906-.003906.007812-.007813 7.761719-7.753906 19.003907-9.625 24.546876-4.082031 5.859374 5.855469 15.351562 5.851562 21.207031-.003906.003906-.003906.003906-.003906.007812-.007813 5.851563-5.863281 5.847657-15.359375-.011719-21.214843zm0 0"/><path d="m191.175781 93.835938c5.882813 2.765624 12.644531 1.378906 16.988281-2.96875 1.195313-1.191407 2.207032-2.609376 2.964844-4.226563 3.523438-7.496094.304688-16.433594-7.191406-19.957031-30.835938-14.496094-74.835938-2.171875-107 29.96875-.015625.015625-.03125.027344-.046875.042968-31.957031 31.964844-44.253906 74.34375-30.597656 105.472657 3.328125 7.585937 12.175781 11.035156 19.761719 7.710937 7.589843-3.332031 11.039062-12.179687 7.710937-19.765625-8.457031-19.277343 1.777344-49.636719 24.339844-72.203125.011719-.011718.023437-.023437.035156-.035156 23.019531-23.003906 53.734375-33.113281 73.035156-24.039062zm0 0"/><path d="m72.320312 72.320312c.019532-.015624.039063-.035156.054688-.054687 34.769531-34.742187 80.65625-50.738281 109.105469-38.03125 5.839843 2.605469 12.460937 1.175781 16.726562-3.089844 1.261719-1.261719 2.316407-2.769531 3.085938-4.492187 3.378906-7.566406-.015625-16.4375-7.578125-19.816406-19.800782-8.839844-45.042969-9.113282-71.082032-.773438-25.46875 8.160156-50.179687 23.714844-71.460937 44.976562-.023437.023438-.042969.046876-.066406.070313-20.921875 20.921875-36.34375 45.222656-44.597657 70.273437-8.546874 25.933594-8.675781 50.234376-.371093 70.273438 3.167969 7.65625 11.945312 11.289062 19.597656 8.117188 7.652344-3.171876 11.285156-11.945313 8.113281-19.601563-11.777344-28.425781 4.398438-73.773437 38.472656-107.851563zm0 0"/><path d="m483.25 122.386719-46.917969-46.921875c-5.78125-5.769532-13.46875-8.960938-21.640625-8.960938-8.167968 0-15.855468 3.191406-21.636718 8.960938l-82.375 82.382812c-11.929688 11.929688-11.929688 31.347656 0 43.277344l20.90625 20.910156-109.542969 109.546875-20.898438-20.90625c-11.9375-11.941406-31.347656-11.929687-43.285156 0l-82.371094 82.371094c-5.777343 5.78125-8.960937 13.464844-8.960937 21.636719 0 8.183594 3.179687 15.867187 8.960937 21.640625l45.667969 45.664062 1.253906 1.257813c19.164063 19.164062 44.335938 28.753906 69.507813 28.753906s50.351562-9.589844 69.507812-28.757812l112.847657-112.839844 108.976562-108.980469c38.332031-38.335937 38.332031-100.699219 0-139.035156zm0 0"/></svg>