<svg fill="#7a1c57" height="512pt" viewBox="-91 0 512 512" width="512pt" xmlns="http://www.w3.org/2000/svg" ><path d="m327.894531 134.304688c-4.988281-36.761719-17.941406-66.597657-38.492187-88.683594-28.175782-30.269532-70.03125-45.621094-124.410156-45.621094-54.375 0-96.230469 15.351562-124.40625 45.625-20.546876 22.078125-33.496094 51.914062-38.492188 88.679688-3.917969 28.886718-2.328125 59.90625 4.726562 92.191406 14.933594 68.394531 40.777344 132.925781 76.804688 191.808594 28.808594 47.074218 55.984375 76.785156 66.34375 87.390624 3.925781 4.007813 9.402344 6.304688 15.023438 6.304688h.023437c5.625-.007812 11.097656-2.3125 15.007813-6.320312 10.347656-10.589844 37.527343-40.304688 66.328124-87.375 36.035157-58.882813 61.875-123.414063 76.804688-191.800782 7.0625-32.277344 8.65625-63.296875 4.738281-92.199218zm-162.902343 118.152343c-41.496094 0-75.253907-33.699219-75.253907-75.121093 0-41.425782 33.757813-75.128907 75.253907-75.128907 41.496093 0 75.253906 33.703125 75.253906 75.128907 0 41.421874-33.757813 75.121093-75.253906 75.121093zm0 0"/><path d="m164.992188 132.207031c-24.953126 0-45.253907 20.246094-45.253907 45.128907 0 24.878906 20.300781 45.121093 45.253907 45.121093 24.953124 0 45.253906-20.242187 45.253906-45.121093 0-24.882813-20.300782-45.128907-45.253906-45.128907zm0 0"/></svg>